<mxfile host="app.diagrams.net" agent="Mozilla/5.0 (Windows NT 10.0; Win64; x64) AppleWebKit/537.36 (KHTML, like Gecko) Chrome/139.0.0.0 Safari/537.36 Edg/139.0.0.0" version="28.1.0">
  <diagram name="Page-1" id="VJX42CDZeE_mQgKXB2et">
    <mxGraphModel dx="96429" dy="64058" grid="1" gridSize="10" guides="1" tooltips="1" connect="1" arrows="1" fold="1" page="1" pageScale="1" pageWidth="413" pageHeight="291" math="0" shadow="0">
      <root>
        <mxCell id="0" />
        <mxCell id="1" parent="0" />
        <mxCell id="aFAm5nOfV1980TJax9QR-149" value="" style="endArrow=classic;html=1;rounded=0;" edge="1" parent="1" source="aFAm5nOfV1980TJax9QR-131" target="aFAm5nOfV1980TJax9QR-132" />
        <mxCell id="aFAm5nOfV1980TJax9QR-154" value="" style="endArrow=classic;html=1;rounded=0;" edge="1" parent="1" source="aFAm5nOfV1980TJax9QR-136" target="aFAm5nOfV1980TJax9QR-137" />
        <mxCell id="aFAm5nOfV1980TJax9QR-155" value="" style="endArrow=classic;html=1;rounded=0;" edge="1" parent="1" source="aFAm5nOfV1980TJax9QR-137" target="aFAm5nOfV1980TJax9QR-138" />
        <mxCell id="aFAm5nOfV1980TJax9QR-156" value="" style="endArrow=classic;html=1;rounded=0;" edge="1" parent="1" source="aFAm5nOfV1980TJax9QR-138" target="aFAm5nOfV1980TJax9QR-139" />
        <mxCell id="aFAm5nOfV1980TJax9QR-160" value="" style="endArrow=classic;html=1;rounded=0;" edge="1" parent="1" source="aFAm5nOfV1980TJax9QR-141" target="aFAm5nOfV1980TJax9QR-142" />
        <mxCell id="aFAm5nOfV1980TJax9QR-163" value="" style="endArrow=classic;html=1;rounded=0;" edge="1" parent="1" source="aFAm5nOfV1980TJax9QR-143" target="aFAm5nOfV1980TJax9QR-144" />
        <mxCell id="aFAm5nOfV1980TJax9QR-166" value="" style="endArrow=classic;html=1;rounded=0;" edge="1" parent="1" source="aFAm5nOfV1980TJax9QR-146" target="aFAm5nOfV1980TJax9QR-147" />
        <mxCell id="aFAm5nOfV1980TJax9QR-204" value="Scheduler" style="swimlane;fontStyle=1;startSize=40;horizontal=0;" vertex="1" parent="1">
          <mxGeometry x="-30637" y="-19080" width="1500" height="120" as="geometry" />
        </mxCell>
        <mxCell id="aFAm5nOfV1980TJax9QR-208" style="ellipse;whiteSpace=wrap;html=1;aspect=fixed;fillColor=#000000;" vertex="1" parent="aFAm5nOfV1980TJax9QR-204">
          <mxGeometry x="60" y="45" width="30" height="30" as="geometry" />
        </mxCell>
        <mxCell id="aFAm5nOfV1980TJax9QR-225" value="&lt;span style=&quot;background-color: light-dark(#ffffff, var(--ge-dark-color, #121212));&quot;&gt;End of Cycle&lt;/span&gt;" style="ellipse;whiteSpace=wrap;html=1;aspect=fixed;strokeWidth=3;" vertex="1" parent="aFAm5nOfV1980TJax9QR-204">
          <mxGeometry x="1340" y="45" width="50" height="50" as="geometry" />
        </mxCell>
        <mxCell id="aFAm5nOfV1980TJax9QR-205" value="Pricing Engine (RL Agent)" style="swimlane;fontStyle=1;startSize=40;horizontal=0;" vertex="1" parent="1">
          <mxGeometry x="-30637" y="-18960" width="1500" height="400" as="geometry" />
        </mxCell>
        <mxCell id="aFAm5nOfV1980TJax9QR-220" value="Observe revenue (Reward) generated by the previous price" style="rounded=1;whiteSpace=wrap;html=1;" vertex="1" parent="aFAm5nOfV1980TJax9QR-205">
          <mxGeometry x="340" y="110" width="160" height="60" as="geometry" />
        </mxCell>
        <mxCell id="aFAm5nOfV1980TJax9QR-213" value="Build current State vector" style="rounded=1;whiteSpace=wrap;html=1;" vertex="1" parent="aFAm5nOfV1980TJax9QR-205">
          <mxGeometry x="340" y="270" width="160" height="40" as="geometry" />
        </mxCell>
        <mxCell id="aFAm5nOfV1980TJax9QR-206" value="Database &amp; &#xa;Data Systems" style="swimlane;fontStyle=1;startSize=40;horizontal=0;" vertex="1" parent="1">
          <mxGeometry x="-30637" y="-18560" width="1500" height="120" as="geometry" />
        </mxCell>
        <mxCell id="aFAm5nOfV1980TJax9QR-207" value="User Interface&#xa; (Website/App)" style="swimlane;fontStyle=1;startSize=40;horizontal=0;" vertex="1" parent="1">
          <mxGeometry x="-30637" y="-18440" width="1500" height="120" as="geometry" />
        </mxCell>
        <mxCell id="aFAm5nOfV1980TJax9QR-209" value="Trigger pricing cycle (e.g., every 30 mins)" style="rounded=1;whiteSpace=wrap;html=1;" vertex="1" parent="1">
          <mxGeometry x="-30517" y="-19050" width="160" height="60" as="geometry" />
        </mxCell>
        <mxCell id="aFAm5nOfV1980TJax9QR-210" style="shape=line;strokeWidth=4;direction=south;rotation=0;" vertex="1" parent="1">
          <mxGeometry x="-30447" y="-18960" width="10" height="50" as="geometry" />
        </mxCell>
        <mxCell id="aFAm5nOfV1980TJax9QR-211" value="Request current state" style="rounded=1;whiteSpace=wrap;html=1;" vertex="1" parent="1">
          <mxGeometry x="-30517" y="-18880" width="160" height="40" as="geometry" />
        </mxCell>
        <mxCell id="aFAm5nOfV1980TJax9QR-212" value="Collect and return data (remaining slots, competitor prices, etc.)" style="rounded=1;whiteSpace=wrap;html=1;" vertex="1" parent="1">
          <mxGeometry x="-30517" y="-18520" width="160" height="60" as="geometry" />
        </mxCell>
        <mxCell id="aFAm5nOfV1980TJax9QR-214" value="Use policy π(action|state) to choose best Action (e.g., DECREASE 5%)" style="rounded=1;whiteSpace=wrap;html=1;" vertex="1" parent="1">
          <mxGeometry x="-30097" y="-18880" width="160" height="60" as="geometry" />
        </mxCell>
        <mxCell id="aFAm5nOfV1980TJax9QR-215" value="Calculate new price" style="rounded=1;whiteSpace=wrap;html=1;" vertex="1" parent="1">
          <mxGeometry x="-29897" y="-18880" width="140" height="40" as="geometry" />
        </mxCell>
        <mxCell id="aFAm5nOfV1980TJax9QR-216" value="Does new price violate business rules?" style="rhombus;whiteSpace=wrap;html=1;" vertex="1" parent="1">
          <mxGeometry x="-29917" y="-18800" width="180" height="80" as="geometry" />
        </mxCell>
        <mxCell id="aFAm5nOfV1980TJax9QR-217" value="Cap/floor the price according to rules" style="rounded=1;whiteSpace=wrap;html=1;" vertex="1" parent="1">
          <mxGeometry x="-29907" y="-18680" width="160" height="50" as="geometry" />
        </mxCell>
        <mxCell id="aFAm5nOfV1980TJax9QR-218" style="rhombus;whiteSpace=wrap;html=1;aspect=fixed;" vertex="1" parent="1">
          <mxGeometry x="-29677" y="-18780" width="40" height="40" as="geometry" />
        </mxCell>
        <mxCell id="aFAm5nOfV1980TJax9QR-219" value="Update new price in Database" style="rounded=1;whiteSpace=wrap;html=1;" vertex="1" parent="1">
          <mxGeometry x="-29577" y="-18785" width="160" height="50" as="geometry" />
        </mxCell>
        <mxCell id="aFAm5nOfV1980TJax9QR-221" value="Update Q-table or neural network weights to learn from experience" style="rounded=1;whiteSpace=wrap;html=1;" vertex="1" parent="1">
          <mxGeometry x="-30097" y="-18640" width="160" height="60" as="geometry" />
        </mxCell>
        <mxCell id="aFAm5nOfV1980TJax9QR-222" style="shape=line;strokeWidth=4;direction=north;rotation=0;" vertex="1" parent="1">
          <mxGeometry x="-29667" y="-18620" width="10" height="50" as="geometry" />
        </mxCell>
        <mxCell id="aFAm5nOfV1980TJax9QR-223" value="When user visits, read latest price from DB" style="rounded=1;whiteSpace=wrap;html=1;" vertex="1" parent="1">
          <mxGeometry x="-29577" y="-18400" width="160" height="60" as="geometry" />
        </mxCell>
        <mxCell id="aFAm5nOfV1980TJax9QR-224" value="Display price" style="rounded=1;whiteSpace=wrap;html=1;" vertex="1" parent="1">
          <mxGeometry x="-29377" y="-18390" width="120" height="40" as="geometry" />
        </mxCell>
        <mxCell id="aFAm5nOfV1980TJax9QR-226" value="" style="endArrow=classic;html=1;rounded=0;" edge="1" parent="1" source="aFAm5nOfV1980TJax9QR-209" target="aFAm5nOfV1980TJax9QR-210">
          <mxGeometry relative="1" as="geometry">
            <mxPoint x="-30442" y="-18990" as="sourcePoint" />
            <mxPoint x="-30442" y="-18960" as="targetPoint" />
          </mxGeometry>
        </mxCell>
        <mxCell id="aFAm5nOfV1980TJax9QR-227" value="" style="endArrow=classic;html=1;rounded=0;" edge="1" parent="1" source="aFAm5nOfV1980TJax9QR-210" target="aFAm5nOfV1980TJax9QR-211">
          <mxGeometry relative="1" as="geometry">
            <mxPoint x="-30442" y="-18910" as="sourcePoint" />
            <mxPoint x="-30437" y="-18880" as="targetPoint" />
          </mxGeometry>
        </mxCell>
        <mxCell id="aFAm5nOfV1980TJax9QR-228" value="" style="endArrow=classic;html=1;rounded=0;" edge="1" parent="1" source="aFAm5nOfV1980TJax9QR-211" target="aFAm5nOfV1980TJax9QR-212">
          <mxGeometry relative="1" as="geometry">
            <mxPoint x="-30437" y="-18840" as="sourcePoint" />
            <mxPoint x="-30437" y="-18520" as="targetPoint" />
          </mxGeometry>
        </mxCell>
        <mxCell id="aFAm5nOfV1980TJax9QR-229" value="" style="endArrow=classic;html=1;rounded=0;" edge="1" parent="1" source="aFAm5nOfV1980TJax9QR-212" target="aFAm5nOfV1980TJax9QR-213">
          <mxGeometry relative="1" as="geometry">
            <mxPoint x="-30357" y="-18490" as="sourcePoint" />
            <mxPoint x="-30217" y="-18840" as="targetPoint" />
            <Array as="points">
              <mxPoint x="-30217" y="-18490" />
            </Array>
          </mxGeometry>
        </mxCell>
        <mxCell id="aFAm5nOfV1980TJax9QR-230" value="[Yes]" style="endArrow=classic;html=1;rounded=0;" edge="1" parent="1" source="aFAm5nOfV1980TJax9QR-216" target="aFAm5nOfV1980TJax9QR-217">
          <mxGeometry relative="1" as="geometry">
            <mxPoint x="-29827" y="-18720" as="sourcePoint" />
            <mxPoint x="-29827" y="-18680" as="targetPoint" />
          </mxGeometry>
        </mxCell>
        <mxCell id="aFAm5nOfV1980TJax9QR-231" value="" style="endArrow=classic;html=1;rounded=0;" edge="1" parent="1" source="aFAm5nOfV1980TJax9QR-217" target="aFAm5nOfV1980TJax9QR-218">
          <mxGeometry relative="1" as="geometry">
            <mxPoint x="-29747" y="-18655" as="sourcePoint" />
            <mxPoint x="-29657" y="-18740" as="targetPoint" />
            <Array as="points">
              <mxPoint x="-29657" y="-18655" />
            </Array>
          </mxGeometry>
        </mxCell>
        <mxCell id="aFAm5nOfV1980TJax9QR-232" value="[No]" style="endArrow=classic;html=1;rounded=0;" edge="1" parent="1" source="aFAm5nOfV1980TJax9QR-216" target="aFAm5nOfV1980TJax9QR-218">
          <mxGeometry relative="1" as="geometry">
            <mxPoint x="-29737" y="-18760" as="sourcePoint" />
            <mxPoint x="-29677" y="-18760" as="targetPoint" />
          </mxGeometry>
        </mxCell>
        <mxCell id="aFAm5nOfV1980TJax9QR-233" value="" style="endArrow=classic;html=1;rounded=0;" edge="1" parent="1" source="aFAm5nOfV1980TJax9QR-219" target="aFAm5nOfV1980TJax9QR-222">
          <mxGeometry relative="1" as="geometry">
            <mxPoint x="-29497" y="-18735" as="sourcePoint" />
            <mxPoint x="-29662" y="-18620" as="targetPoint" />
            <Array as="points">
              <mxPoint x="-29497" y="-18595" />
            </Array>
          </mxGeometry>
        </mxCell>
        <mxCell id="aFAm5nOfV1980TJax9QR-234" value="" style="endArrow=classic;html=1;rounded=0;" edge="1" parent="1" source="aFAm5nOfV1980TJax9QR-210" target="aFAm5nOfV1980TJax9QR-220">
          <mxGeometry relative="1" as="geometry">
            <mxPoint x="-30432" y="-18910" as="sourcePoint" />
            <mxPoint x="-30217" y="-18640" as="targetPoint" />
            <Array as="points">
              <mxPoint x="-30217" y="-18935" />
            </Array>
          </mxGeometry>
        </mxCell>
        <mxCell id="aFAm5nOfV1980TJax9QR-235" value="" style="endArrow=classic;html=1;rounded=0;" edge="1" parent="1" source="aFAm5nOfV1980TJax9QR-221" target="aFAm5nOfV1980TJax9QR-222">
          <mxGeometry relative="1" as="geometry">
            <mxPoint x="-29937" y="-18610" as="sourcePoint" />
            <mxPoint x="-29667" y="-18595" as="targetPoint" />
            <Array as="points">
              <mxPoint x="-29877" y="-18595" />
            </Array>
          </mxGeometry>
        </mxCell>
        <mxCell id="aFAm5nOfV1980TJax9QR-236" value="" style="endArrow=classic;html=1;rounded=0;dashed=1;" edge="1" parent="1" source="aFAm5nOfV1980TJax9QR-219" target="aFAm5nOfV1980TJax9QR-223">
          <mxGeometry relative="1" as="geometry">
            <mxPoint x="-29497" y="-18735" as="sourcePoint" />
            <mxPoint x="-29497" y="-18400" as="targetPoint" />
          </mxGeometry>
        </mxCell>
        <mxCell id="aFAm5nOfV1980TJax9QR-237" value="After 30 mins" style="endArrow=classic;html=1;rounded=0;" edge="1" parent="1" source="aFAm5nOfV1980TJax9QR-222" target="aFAm5nOfV1980TJax9QR-225">
          <mxGeometry relative="1" as="geometry">
            <mxPoint x="-29652" y="-18595" as="sourcePoint" />
            <mxPoint x="-29262" y="-19020" as="targetPoint" />
            <Array as="points">
              <mxPoint x="-29262" y="-18595" />
            </Array>
          </mxGeometry>
        </mxCell>
        <mxCell id="aFAm5nOfV1980TJax9QR-238" value="" style="endArrow=classic;html=1;rounded=0;dashed=1;" edge="1" parent="1" source="aFAm5nOfV1980TJax9QR-225" target="aFAm5nOfV1980TJax9QR-209">
          <mxGeometry relative="1" as="geometry">
            <mxPoint x="-29377" y="-19020" as="sourcePoint" />
            <mxPoint x="-30357" y="-19020" as="targetPoint" />
            <Array as="points">
              <mxPoint x="-29377" y="-19060" />
              <mxPoint x="-30437" y="-19060" />
            </Array>
          </mxGeometry>
        </mxCell>
        <mxCell id="aFAm5nOfV1980TJax9QR-239" value="ấdfsafsda" style="text;strokeColor=none;align=center;fillColor=none;html=1;verticalAlign=middle;whiteSpace=wrap;rounded=0;" vertex="1" parent="1">
          <mxGeometry x="-29060" y="-18400" width="60" height="30" as="geometry" />
        </mxCell>
        <mxCell id="aFAm5nOfV1980TJax9QR-240" value="fdasfsfsdsf" style="text;html=1;align=center;verticalAlign=middle;resizable=0;points=[];autosize=1;strokeColor=none;fillColor=none;" vertex="1" parent="1">
          <mxGeometry x="-30980" y="-19112" width="80" height="30" as="geometry" />
        </mxCell>
      </root>
    </mxGraphModel>
  </diagram>
</mxfile>
